<?xml version="1.0" encoding="UTF-8" standalone="no"?>
<!-- Created with Inkscape (http://www.inkscape.org/) -->
<svg xmlns:dc="http://purl.org/dc/elements/1.1/" xmlns:cc="http://web.resource.org/cc/" xmlns:rdf="http://www.w3.org/1999/02/22-rdf-syntax-ns#" xmlns:svg="http://www.w3.org/2000/svg" xmlns="http://www.w3.org/2000/svg" xmlns:xlink="http://www.w3.org/1999/xlink" xmlns:sodipodi="http://sodipodi.sourceforge.net/DTD/sodipodi-0.dtd" xmlns:inkscape="http://www.inkscape.org/namespaces/inkscape" width="240.00000px" height="240.00000px" id="svg2" sodipodi:version="0.32" inkscape:version="0.45pre1" sodipodi:docbase="/home/nicu/Desktop/clipart" sodipodi:docname="border.svg" inkscape:output_extension="org.inkscape.output.svg.inkscape" sodipodi:modified="true">
  <defs id="defs3">
    <linearGradient id="linearGradient7508">
      <stop style="stop-color:#7b0000;stop-opacity:1;" offset="0" id="stop7510"/>
      <stop style="stop-color:#a00000;stop-opacity:1.0000000;" offset="1.0000000" id="stop7512"/>
    </linearGradient>
    <linearGradient id="linearGradient2376">
      <stop style="stop-color:#ffc900;stop-opacity:1;" offset="0" id="stop2378"/>
      <stop style="stop-color:#ffea00;stop-opacity:1.0000000;" offset="1.0000000" id="stop2380"/>
    </linearGradient>
    <linearGradient inkscape:collect="always" xlink:href="#linearGradient2376" id="linearGradient9126" gradientUnits="userSpaceOnUse" gradientTransform="matrix(-1,0,0,1,752.7996,23.53976)" x1="673.79962" y1="218.50667" x2="737.22089" y2="192.40924"/>
    <linearGradient inkscape:collect="always" xlink:href="#linearGradient2376" id="linearGradient9128" gradientUnits="userSpaceOnUse" gradientTransform="matrix(-1,0,0,1,752.7996,23.53976)" x1="739.78912" y1="225.79610" x2="673.79962" y2="248.16855"/>
    <linearGradient inkscape:collect="always" xlink:href="#linearGradient2376" id="linearGradient9130" gradientUnits="userSpaceOnUse" gradientTransform="matrix(0,1,-1,0,411.8224,-653.8982)" x1="747.26038" y1="163.28998" x2="673.79932" y2="239.37019"/>
    <linearGradient inkscape:collect="always" xlink:href="#linearGradient2376" id="linearGradient9132" gradientUnits="userSpaceOnUse" gradientTransform="matrix(0,1,-1,0,411.8224,-653.8982)" x1="690.99298" y1="269.45581" x2="747.26038" y2="182.67899"/>
    <linearGradient inkscape:collect="always" xlink:href="#linearGradient2376" id="linearGradient9134" gradientUnits="userSpaceOnUse" gradientTransform="matrix(0.606133,0,0,0.606133,208.3735,34.21188)" x1="339.81781" y1="62.270416" x2="281.08194" y2="6.5466456"/>
    <linearGradient inkscape:collect="always" xlink:href="#linearGradient2376" id="linearGradient9136" gradientUnits="userSpaceOnUse" gradientTransform="matrix(0.606133,0,0,0.606133,208.3735,34.21188)" x1="272.02756" y1="23.115671" x2="353.41162" y2="77.362137"/>
    <linearGradient inkscape:collect="always" xlink:href="#linearGradient2376" id="linearGradient9138" gradientUnits="userSpaceOnUse" gradientTransform="matrix(0.606133,0,0,0.606133,-147.4732,373.0585)" x1="353.83850" y1="62.270416" x2="281.08194" y2="6.5466456"/>
    <linearGradient inkscape:collect="always" xlink:href="#linearGradient2376" id="linearGradient9140" gradientUnits="userSpaceOnUse" gradientTransform="matrix(0.606133,0,0,0.606133,-147.4732,373.0585)" x1="272.02756" y1="23.115671" x2="353.41162" y2="77.362137"/>
    <linearGradient inkscape:collect="always" xlink:href="#linearGradient2376" id="linearGradient9142" gradientUnits="userSpaceOnUse" gradientTransform="translate(43.7394,24.0008)" x1="737.45551" y1="227.49544" x2="674.29956" y2="220.10855"/>
    <linearGradient inkscape:collect="always" xlink:href="#linearGradient2376" id="linearGradient9144" gradientUnits="userSpaceOnUse" gradientTransform="translate(43.7394,24.0008)" x1="674.29956" y1="192.40926" x2="746.76062" y2="209.64528"/>
    <linearGradient inkscape:collect="always" xlink:href="#linearGradient2376" id="linearGradient9146" gradientUnits="userSpaceOnUse" gradientTransform="matrix(0,1,1,0,384.7166,-653.4372)" x1="737.45551" y1="227.49544" x2="674.29956" y2="220.10855"/>
    <linearGradient inkscape:collect="always" xlink:href="#linearGradient2376" id="linearGradient9148" gradientUnits="userSpaceOnUse" gradientTransform="matrix(0,1,1,0,384.7166,-653.4372)" x1="674.29956" y1="192.40926" x2="746.76062" y2="209.64528"/>
    <linearGradient inkscape:collect="always" xlink:href="#linearGradient2376" id="linearGradient9150" gradientUnits="userSpaceOnUse" gradientTransform="matrix(-0.606133,0,0,0.606133,944.0122,373.5195)" x1="271.60132" y1="77.788849" x2="353.83850" y2="8.6651726"/>
    <linearGradient inkscape:collect="always" xlink:href="#linearGradient2376" id="linearGradient9152" gradientUnits="userSpaceOnUse" gradientTransform="matrix(-0.606133,0,0,0.606133,944.0122,373.5195)" x1="353.83850" y1="36.670269" x2="271.60132" y2="77.788849"/>
    <linearGradient inkscape:collect="always" xlink:href="#linearGradient2376" id="linearGradient9154" gradientUnits="userSpaceOnUse" gradientTransform="matrix(-1,0,0,-1,751.9529,766.7235)" x1="673.79956" y1="170.99463" x2="739.78912" y2="201.39803"/>
    <linearGradient inkscape:collect="always" xlink:href="#linearGradient2376" id="linearGradient9156" gradientUnits="userSpaceOnUse" gradientTransform="matrix(-1,0,0,-1,751.9529,766.7235)" x1="739.78912" y1="201.39803" x2="681.27106" y2="153.14447"/>
    <linearGradient inkscape:collect="always" xlink:href="#linearGradient2376" id="linearGradient9158" gradientUnits="userSpaceOnUse" gradientTransform="matrix(0,-1,-1,0,410.9757,1444.161)" x1="673.79883" y1="178.69930" x2="747.25989" y2="209.83568"/>
    <linearGradient inkscape:collect="always" xlink:href="#linearGradient2376" id="linearGradient9160" gradientUnits="userSpaceOnUse" gradientTransform="matrix(0,-1,-1,0,410.9757,1444.161)" x1="740.57251" y1="180.85222" x2="673.79883" y2="148.00804"/>
    <linearGradient inkscape:collect="always" xlink:href="#linearGradient2376" id="linearGradient9162" gradientUnits="userSpaceOnUse" gradientTransform="matrix(0.606133,0,0,-0.606133,207.5268,756.0514)" x1="335.58075" y1="-4.4484949" x2="271.60132" y2="36.670086"/>
    <linearGradient inkscape:collect="always" xlink:href="#linearGradient2376" id="linearGradient9164" gradientUnits="userSpaceOnUse" gradientTransform="matrix(0.606133,0,0,-0.606133,207.5268,756.0514)" x1="271.60132" y1="63.367683" x2="353.83850" y2="-4.4484949"/>
    <linearGradient inkscape:collect="always" xlink:href="#linearGradient2376" id="linearGradient9166" gradientUnits="userSpaceOnUse" gradientTransform="matrix(1,0,0,-1,42.7394,766.7235)" x1="747.26062" y1="177.41518" x2="682.78833" y2="214.97211"/>
    <linearGradient inkscape:collect="always" xlink:href="#linearGradient2376" id="linearGradient9168" gradientUnits="userSpaceOnUse" gradientTransform="matrix(1,0,0,-1,42.7394,766.7235)" x1="682.78833" y1="214.97211" x2="747.26062" y2="192.40921"/>
    <linearGradient inkscape:collect="always" xlink:href="#linearGradient2376" id="linearGradient9170" gradientUnits="userSpaceOnUse" gradientTransform="matrix(0,-1,1,0,383.7166,1444.161)" x1="673.79883" y1="259.59818" x2="747.25989" y2="232.94965"/>
    <linearGradient inkscape:collect="always" xlink:href="#linearGradient2376" id="linearGradient9172" gradientUnits="userSpaceOnUse" gradientTransform="matrix(0,-1,1,0,383.7166,1444.161)" x1="747.25989" y1="176.99994" x2="673.79883" y2="230.19102"/>
    <linearGradient gradientTransform="scale(0.3,0.3)" y2="30.768328" x2="186.76956" y1="702.92181" x1="658.21710" gradientUnits="userSpaceOnUse" id="linearGradient1402" xlink:href="#linearGradient7508" inkscape:collect="always"/>
    <linearGradient y2="296.53998" x2="309.71277" y1="470.48825" x1="557.20013" gradientTransform="scale(0.3,0.3)" gradientUnits="userSpaceOnUse" id="linearGradient1410" xlink:href="#linearGradient2376" inkscape:collect="always"/>
    <linearGradient y2="484.07162" x2="524.56952" y1="318.60864" x1="272.69220" gradientTransform="scale(0.3,0.3)" gradientUnits="userSpaceOnUse" id="linearGradient1412" xlink:href="#linearGradient2376" inkscape:collect="always"/>
    <linearGradient y2="48.876568" x2="80.781555" y1="89.663742" x1="86.606789" gradientTransform="matrix(0.993716,-0.111929,0.111929,0.993716,-0.385233,-0.770465)" gradientUnits="userSpaceOnUse" id="linearGradient4068" xlink:href="#linearGradient2376" inkscape:collect="always"/>
    <linearGradient y2="87.251747" x2="65.192856" y1="45.784847" x1="53.332958" gradientTransform="matrix(0.993716,-0.111929,0.111929,0.993716,-0.385233,-0.770465)" gradientUnits="userSpaceOnUse" id="linearGradient4070" xlink:href="#linearGradient2376" inkscape:collect="always"/>
  </defs>
  <sodipodi:namedview id="base" pagecolor="#ffffff" bordercolor="#666666" borderopacity="1.0" inkscape:pageopacity="0.0" inkscape:pageshadow="2" inkscape:zoom="1" inkscape:cx="120" inkscape:cy="120" inkscape:document-units="px" inkscape:current-layer="layer1" showgrid="false" inkscape:window-width="1152" inkscape:window-height="791" inkscape:window-x="0" inkscape:window-y="24"/>
  <g inkscape:label="Layer 1" inkscape:groupmode="layer" id="layer1">
    <path style="fill:#000000;fill-opacity:0.09411765;fill-rule:evenodd;stroke:none;stroke-width:2;stroke-linecap:butt;stroke-linejoin:miter;stroke-miterlimit:4;stroke-opacity:1" d="M 103.25046,8.5544886 C 102.64598,8.4912801 102.02689,8.5024719 101.40359,8.5919886 C 98.225406,8.9071446 95.379225,11.517121 95.047335,14.732614 C 94.759992,17.302282 96.601308,20.226262 99.359835,20.301364 C 101.19538,20.551072 103.01192,18.825226 102.66921,16.973239 C 102.40687,15.816676 100.42697,14.617723 100.44733,16.485739 C 99.376395,18.761809 97.272672,16.469464 97.81296,14.770114 C 98.292948,11.92063 101.87902,10.446943 104.39421,11.620114 C 107.98317,12.887146 109.39585,17.332639 108.33171,20.760739 C 107.2733,24.327769 103.6276,26.680645 100.00671,26.863864 C 97.672191,27.083037 95.397,26.388943 93.21921,25.645114 C 80.333874,22.026313 67.573845,17.998684 54.85671,13.832614 C 49.194162,12.078118 43.541928,10.254682 37.766085,8.9107386 C 31.535475,8.0401353 24.740434,12.765079 24.247336,19.213864 C 23.690341,23.895061 26.917954,28.842306 31.60671,29.807613 C 34.588641,30.384651 37.9761,29.225652 39.584835,26.554489 C 41.107833,24.358825 40.916157,21.09919 38.90046,19.270114 C 37.39473,17.859679 34.478187,17.632495 33.35046,19.626364 C 32.199858,20.710111 33.439284,23.383021 34.58796,22.982614 C 34.885437,21.383308 37.210941,19.978834 37.68171,22.270114 C 38.535306,24.698803 36.171546,26.944045 33.89421,27.220114 C 30.73581,27.65475 27.781459,25.08034 27.181711,22.054489 C 26.417365,18.98677 27.54967,15.499528 30.16296,13.654489 C 33.398475,10.996942 38.044263,11.204554 41.76921,12.613864 C 50.282079,15.21571 58.775406,17.920306 67.25046,20.648239 C 75.582618,23.331727 83.959989,25.873063 92.39421,28.213863 C 96.026406,29.377395 100.13332,30.437805 103.79421,28.795113 C 108.51325,27.161592 111.92463,22.219204 111.37859,17.188864 C 111.06525,12.950368 107.48179,8.9969487 103.25046,8.5544886 z M 139.68171,8.6951136 C 135.45038,9.1375737 131.86692,13.090993 131.55358,17.329489 C 131.00754,22.359829 134.41893,27.302218 139.13796,28.935738 C 142.79885,30.57843 146.90576,29.51802 150.53796,28.354488 C 158.97218,26.013688 167.34956,23.472352 175.68171,20.788864 C 184.15676,18.060931 192.65008,15.356335 201.16296,12.754489 C 204.88791,11.345179 209.53369,11.137567 212.76921,13.795114 C 215.3825,15.640153 216.51481,19.118019 215.75046,22.185739 C 215.15071,25.21159 212.19636,27.795375 209.03796,27.360739 C 206.76062,27.08467 204.39686,24.839428 205.25046,22.410739 C 205.72123,20.119459 208.04674,21.523933 208.34421,23.123239 C 209.49289,23.523646 210.73231,20.850736 209.58171,19.766989 C 208.45398,17.77312 205.53744,18.000304 204.03171,19.410739 C 202.01601,21.239815 201.83371,24.499449 203.35671,26.695114 C 204.96545,29.366277 208.34353,30.525276 211.32546,29.948238 C 216.01422,28.982934 219.24184,24.035686 218.68483,19.354489 C 218.19174,12.905704 211.3967,8.1713856 205.16608,9.0419886 C 199.39024,10.385932 193.73801,12.218743 188.07546,13.973239 C 175.35832,18.139309 162.59829,22.166937 149.71296,25.785739 C 147.53517,26.529568 145.25998,27.223663 142.92546,27.004489 C 139.30457,26.82127 135.65887,24.468394 134.60046,20.901364 C 133.53632,17.473264 134.94901,13.027771 138.53796,11.760739 C 141.05315,10.587568 144.63922,12.061255 145.11921,14.910739 C 145.6595,16.610089 143.55578,18.902434 142.48484,16.626364 C 142.5052,14.758348 140.5253,15.957301 140.26296,17.113864 C 139.92025,18.965851 141.73678,20.691697 143.57234,20.441989 C 146.33086,20.366887 148.17217,17.433532 147.88484,14.863864 C 147.55294,11.648371 144.70677,9.0477693 141.52858,8.7326136 C 140.90528,8.6430969 140.28619,8.6319051 139.68171,8.6951136 z M 121.36296,11.995114 C 117.41088,11.995113 114.18171,15.224274 114.18171,19.176364 C 114.18171,23.128453 117.41088,26.357614 121.36296,26.357614 C 125.31505,26.357614 128.53483,23.128453 128.53483,19.176364 C 128.53484,15.224274 125.31505,11.995115 121.36296,11.995114 z M 121.36296,13.813864 C 124.33118,13.813864 126.72546,16.208143 126.72546,19.176364 C 126.72546,22.144584 124.33118,24.538864 121.36296,24.538864 C 118.39475,24.538863 116.00046,22.144584 116.00046,19.176364 C 116.00046,16.208143 118.39475,13.813864 121.36296,13.813864 z M 14.834836,23.441989 C 10.496977,23.793415 6.5329152,26.91596 5.1035862,31.045113 C 3.4608942,34.706001 4.5213072,38.812917 5.6848362,42.445113 C 8.0256372,50.879334 10.566973,59.256708 13.250461,67.588863 C 15.978394,76.063917 18.68299,84.557244 21.284836,93.070113 C 22.694146,96.79506 22.901758,101.44085 20.244211,104.67636 C 18.399172,107.28965 14.921302,108.42196 11.853586,107.65761 C 8.8277352,107.05787 6.2439492,104.10352 6.6785862,100.94511 C 6.9546552,98.667777 9.1998972,96.30402 11.628586,97.157613 C 13.919866,97.628382 12.515392,99.944508 10.916086,100.24199 C 10.515679,101.39066 13.188586,102.63947 14.272336,101.48886 C 16.266205,100.36114 16.039021,97.444593 14.628586,95.938863 C 12.79951,93.923166 9.5398752,93.73149 7.3442112,95.254488 C 4.6730502,96.863223 3.5140482,100.25068 4.0910862,103.23261 C 5.0563932,107.92137 10.003639,111.14899 14.684836,110.59199 C 21.133621,110.09889 25.867939,103.30385 24.997336,97.073238 C 23.653393,91.297395 21.820582,85.645164 20.066086,79.982613 C 15.900016,67.265478 11.872387,54.505446 8.2535862,41.620113 C 7.5097572,39.442323 6.8156622,37.167138 7.0348362,34.832613 C 7.2180552,31.211727 9.5709312,27.566025 13.137961,26.507614 C 16.566061,25.44347 21.011554,26.856156 22.278586,30.445113 C 23.451757,32.960307 21.978067,36.546369 19.128586,37.026363 C 17.429236,37.566651 15.136891,35.462934 17.412961,34.391988 C 19.280977,34.412355 18.082021,32.432454 16.925461,32.170113 C 15.073474,31.827399 13.347628,33.643941 13.597336,35.479488 C 13.672438,38.238018 16.605793,40.079328 19.175461,39.791988 C 22.390954,39.460098 24.991555,36.613917 25.306711,33.435738 C 26.022844,28.449315 21.553831,23.81884 16.709836,23.460739 C 16.081042,23.392483 15.454528,23.391785 14.834836,23.441989 z M 228.09733,23.573239 C 227.47764,23.523035 226.85113,23.533108 226.22233,23.601364 C 221.37834,23.959465 216.90933,28.589943 217.62546,33.576363 C 217.94061,36.754542 220.54122,39.591348 223.75671,39.923238 C 226.32638,40.210578 229.25973,38.369268 229.33483,35.610738 C 229.58454,33.775191 227.8587,31.958649 226.00671,32.301363 C 224.85014,32.563707 223.65119,34.543602 225.51921,34.523238 C 227.79527,35.594178 225.50294,37.707276 223.80358,37.166988 C 220.9541,36.686991 219.48041,33.100935 220.65358,30.585738 C 221.92062,26.996783 226.36611,25.57472 229.79421,26.638864 C 233.36125,27.697275 235.71412,31.352352 235.89733,34.973238 C 236.11651,37.307763 235.42241,39.573573 234.67858,41.751363 C 231.05979,54.636696 227.03216,67.406103 222.86608,80.123238 C 221.11158,85.785789 219.27878,91.438023 217.93483,97.213863 C 217.06424,103.44447 221.79855,110.23951 228.24733,110.73261 C 232.92853,111.28961 237.87578,108.05262 238.84108,103.36386 C 239.41813,100.38193 238.25912,97.003848 235.58796,95.395113 C 233.39229,93.872112 230.13266,94.063788 228.30358,96.079488 C 226.89314,97.585224 226.66597,100.50176 228.65983,101.62949 C 229.74358,102.78009 232.41649,101.53129 232.01608,100.38261 C 230.41677,100.08514 229.0123,97.759632 231.30358,97.288863 C 233.73228,96.435276 235.97752,98.799024 236.25358,101.07636 C 236.68822,104.23476 234.10444,107.19849 231.07858,107.79824 C 228.01087,108.56259 224.533,107.43028 222.68796,104.81699 C 220.03041,101.58147 220.23802,96.92631 221.64733,93.201363 C 224.24918,84.688491 226.95378,76.204542 229.68171,67.729488 C 232.3652,59.39733 234.90653,51.019959 237.24733,42.585738 C 238.41087,38.953545 239.47128,34.846623 237.82858,31.185738 C 236.39925,27.056584 232.43519,23.924665 228.09733,23.573239 z M 14.609836,113.65761 C 10.65775,113.65762 7.4285862,116.8774 7.4285862,120.82949 C 7.4285862,124.78158 10.657753,128.01074 14.609836,128.01074 C 18.561925,128.01073 21.781711,124.78158 21.781711,120.82949 C 21.781711,116.8774 18.561928,113.65762 14.609836,113.65761 z M 228.32233,113.78886 C 224.37024,113.78887 221.15046,117.01802 221.15046,120.97011 C 221.15046,124.9222 224.37024,128.14199 228.32233,128.14199 C 232.27442,128.14199 235.50358,124.9222 235.50358,120.97011 C 235.50358,117.01802 232.27442,113.78886 228.32233,113.78886 z M 14.609836,115.47636 C 17.578057,115.47636 19.962961,117.86127 19.962961,120.82949 C 19.962961,123.79771 17.57806,126.19199 14.609836,126.19199 C 11.641618,126.19199 9.2473362,123.79771 9.2473362,120.82949 C 9.2473362,117.86127 11.641621,115.47636 14.609836,115.47636 z M 228.32233,115.60761 C 231.29055,115.60761 233.68483,118.00189 233.68483,120.97011 C 233.68483,123.93833 231.29055,126.32323 228.32233,126.32324 C 225.35411,126.32324 222.96921,123.93833 222.96921,120.97011 C 222.96921,118.00189 225.35411,115.60761 228.32233,115.60761 z M 12.669211,130.94511 C 8.5732662,131.2542 4.6826052,134.23933 3.8379612,138.34199 C 3.2609232,141.32391 4.4199252,144.702 7.0910862,146.31074 C 9.2867502,147.83374 12.546385,147.64206 14.375461,145.62636 C 15.785893,144.12063 16.01308,141.20409 14.019211,140.07636 C 12.935464,138.92576 10.262554,140.17456 10.662961,141.32324 C 12.262267,141.62071 13.666741,143.94622 11.375461,144.41699 C 8.9467722,145.27058 6.7015302,142.90682 6.4254612,140.62949 C 5.9908242,137.47109 8.5746102,134.50736 11.600461,133.90761 C 14.66818,133.14326 18.146047,134.28495 19.991086,136.89824 C 22.648633,140.13375 22.441021,144.77954 21.031711,148.50449 C 18.429862,157.01736 15.725269,165.50131 12.997336,173.97636 C 10.313848,182.30852 7.7725122,190.68589 5.4317112,199.12011 C 4.2681822,202.75231 3.2077692,206.85923 4.8504612,210.52011 C 6.4839822,215.23915 11.426371,218.65053 16.456711,218.10449 C 21.300706,217.74639 25.769719,213.11591 25.053586,208.12949 C 24.73843,204.9513 22.137829,202.1145 18.922336,201.78261 C 16.352668,201.49528 13.419313,203.33658 13.344211,206.09511 C 13.0945,207.93067 14.820349,209.7472 16.672336,209.40449 C 17.828899,209.14215 19.027852,207.16225 17.159836,207.18261 C 14.883766,206.11166 17.176111,203.99858 18.875461,204.53886 C 21.724945,205.01885 23.198632,208.61429 22.025461,211.12949 C 20.758429,214.71844 16.312936,216.13113 12.884836,215.06699 C 9.3178032,214.00858 6.9649302,210.3535 6.7817112,206.73261 C 6.5625372,204.39809 7.2566322,202.13228 8.0004612,199.95449 C 11.619262,187.06916 15.646891,174.29975 19.812961,161.58261 C 21.567457,155.92006 23.400268,150.26783 24.744211,144.49199 C 25.614814,138.26138 20.880496,131.46634 14.431711,130.97324 C 13.846561,130.90361 13.254346,130.90096 12.669211,130.94511 z M 229.70983,130.94511 C 229.1247,130.90096 228.53248,130.90361 227.94733,130.97324 C 221.49855,131.46634 216.76424,138.26138 217.63483,144.49199 C 218.97878,150.26783 220.81158,155.92006 222.56608,161.58261 C 226.73216,174.29975 230.75979,187.06916 234.37858,199.95449 C 235.12241,202.13228 235.81651,204.39809 235.59733,206.73261 C 235.41412,210.3535 233.06125,214.00858 229.49421,215.06699 C 226.06611,216.13113 221.62062,214.71844 220.35358,211.12949 C 219.18041,208.61429 220.6541,205.01885 223.50358,204.53886 C 225.20293,203.99858 227.49527,206.11166 225.21921,207.18261 C 223.35119,207.16225 224.55014,209.14215 225.70671,209.40449 C 227.5587,209.7472 229.28454,207.93067 229.03483,206.09511 C 228.95973,203.33658 226.02638,201.49528 223.45671,201.78261 C 220.24122,202.1145 217.64061,204.9513 217.32546,208.12949 C 216.60933,213.11591 221.07834,217.74639 225.92233,218.10449 C 230.95267,218.65053 235.89506,215.23915 237.52858,210.52011 C 239.17128,206.85923 238.11087,202.75231 236.94733,199.12011 C 234.60653,190.68589 232.0652,182.30852 229.38171,173.97636 C 226.65378,165.50131 223.94918,157.01736 221.34733,148.50449 C 219.93803,144.77954 219.73041,140.13375 222.38796,136.89824 C 224.233,134.28495 227.71087,133.14326 230.77858,133.90761 C 233.80444,134.50736 236.38822,137.47109 235.95358,140.62949 C 235.67752,142.90682 233.43228,145.27058 231.00358,144.41699 C 228.71231,143.94622 230.11677,141.62071 231.71608,141.32324 C 232.11649,140.17456 229.44358,138.92576 228.35983,140.07636 C 226.36597,141.20409 226.59314,144.12063 228.00358,145.62636 C 229.83266,147.64206 233.09229,147.83374 235.28796,146.31074 C 237.95912,144.702 239.11813,141.32391 238.54108,138.34199 C 237.69644,134.23933 233.80578,131.2542 229.70983,130.94511 z M 32.48796,211.62636 C 32.107002,211.64465 31.726326,211.68548 31.353585,211.75761 C 26.664829,212.72292 23.437216,217.67016 23.994211,222.35136 C 24.487309,228.80015 31.282347,233.53446 37.51296,232.66386 C 43.288803,231.31992 48.941034,229.49648 54.603585,227.74199 C 67.32072,223.57592 80.080752,219.53891 92.966085,215.92011 C 95.143875,215.17628 97.41906,214.49157 99.753585,214.71074 C 103.37447,214.89396 107.02018,217.23746 108.07859,220.80449 C 109.14273,224.23259 107.73004,228.67808 104.14109,229.94511 C 101.62589,231.11828 98.039826,229.65398 97.559835,226.80449 C 97.019547,225.10514 99.123273,222.80343 100.19421,225.07949 C 100.17384,226.9475 102.15374,225.74854 102.41608,224.59199 C 102.7588,222.74 100.94226,221.02354 99.10671,221.27324 C 96.348183,221.34834 94.50687,224.27232 94.79421,226.84199 C 95.1261,230.05748 97.972284,232.65807 101.15046,232.97324 C 106.13688,233.68937 110.76736,229.22036 111.12546,224.37636 C 111.67151,219.34602 108.26011,214.40363 103.54108,212.77011 C 99.880197,211.12742 95.773284,212.18783 92.141085,213.35136 C 83.706864,215.69216 75.320115,218.2335 66.98796,220.91699 C 58.512906,223.64492 50.028957,226.34952 41.516085,228.95136 C 37.791138,230.36067 33.14535,230.56829 29.909836,227.91074 C 27.296545,226.0657 26.16424,222.58783 26.928586,219.52011 C 27.528334,216.49426 30.482682,213.91986 33.641085,214.35449 C 35.918421,214.63056 38.282178,216.86642 37.428585,219.29511 C 36.957816,221.58639 34.632312,220.18193 34.334835,218.58261 C 33.186159,218.18221 31.94673,220.85512 33.097335,221.93886 C 34.225062,223.93273 37.141602,223.70554 38.647335,222.29511 C 40.663032,220.46604 40.845333,217.20639 39.322335,215.01074 C 37.914693,212.67347 35.154672,211.49838 32.48796,211.62636 z M 209.89108,211.62636 C 207.22437,211.49838 204.46435,212.67347 203.05671,215.01074 C 201.53371,217.20639 201.71601,220.46604 203.73171,222.29511 C 205.23744,223.70554 208.15398,223.93273 209.28171,221.93886 C 210.43231,220.85512 209.19289,218.18221 208.04421,218.58261 C 207.74674,220.18193 205.42123,221.58639 204.95046,219.29511 C 204.09686,216.86642 206.46062,214.63056 208.73796,214.35449 C 211.89636,213.91986 214.85071,216.49426 215.45046,219.52011 C 216.21481,222.58783 215.0825,226.0657 212.46921,227.91074 C 209.23369,230.56829 204.58791,230.36067 200.86296,228.95136 C 192.35008,226.34952 183.85676,223.64492 175.38171,220.91699 C 167.04956,218.2335 158.67218,215.69216 150.23796,213.35136 C 146.60576,212.18783 142.49885,211.12742 138.83796,212.77011 C 134.11893,214.40363 130.70754,219.34602 131.25358,224.37636 C 131.61169,229.22036 136.24216,233.68937 141.22859,232.97324 C 144.40677,232.65807 147.25294,230.05748 147.58483,226.84199 C 147.87217,224.27232 146.03086,221.34834 143.27233,221.27324 C 141.43678,221.02354 139.62025,222.74 139.96296,224.59199 C 140.2253,225.74854 142.2052,226.9475 142.18483,225.07949 C 143.25578,222.80343 145.3595,225.10514 144.81921,226.80449 C 144.33922,229.65398 140.75315,231.11828 138.23796,229.94511 C 134.64901,228.67808 133.23632,224.23259 134.30046,220.80449 C 135.35888,217.23746 139.00457,214.89396 142.62546,214.71074 C 144.95998,214.49157 147.23517,215.17628 149.41296,215.92011 C 162.29829,219.53891 175.05832,223.57592 187.77546,227.74199 C 193.43801,229.49648 199.09024,231.31992 204.86608,232.66386 C 211.0967,233.53446 217.89174,228.80015 218.38483,222.35136 C 218.94184,217.67016 215.71422,212.72292 211.02546,211.75761 C 210.65272,211.68548 210.27204,211.64465 209.89108,211.62636 z M 121.10984,215.21699 C 117.15775,215.21699 113.92858,218.43678 113.92858,222.38886 C 113.92858,226.34095 117.15775,229.57012 121.10984,229.57011 C 125.06193,229.57011 128.28171,226.34096 128.28171,222.38886 C 128.28171,218.43677 125.06193,215.21698 121.10984,215.21699 z M 121.10984,217.03574 C 124.07806,217.03574 126.46296,219.42065 126.46296,222.38886 C 126.46296,225.35708 124.07806,227.75137 121.10984,227.75136 C 118.14162,227.75136 115.74733,225.35709 115.74733,222.38886 C 115.74733,219.42064 118.14162,217.03574 121.10984,217.03574 z " id="path6746"/>
    <path style="fill:#000000;fill-opacity:0.09411765;fill-rule:evenodd;stroke:none;stroke-width:2;stroke-linecap:butt;stroke-linejoin:miter;stroke-miterlimit:4;stroke-opacity:1" d="M 102.8262,7.7059617 C 102.22172,7.6427517 101.60263,7.6539447 100.97932,7.7434617 C 97.801143,8.0586177 94.954962,10.668594 94.623072,13.884087 C 94.335729,16.453755 96.177045,19.377735 98.935572,19.452837 C 100.77112,19.702545 102.58766,17.976699 102.24495,16.124712 C 101.9826,14.968149 100.00271,13.769196 100.02307,15.637212 C 98.952132,17.913282 96.848409,15.620937 97.388697,13.921587 C 97.868685,11.072103 101.45475,9.5984157 103.96995,10.771587 C 107.55891,12.038619 108.97159,16.484112 107.90745,19.912212 C 106.84904,23.479242 103.20333,25.832118 99.582447,26.015337 C 97.247928,26.234508 94.972737,25.540416 92.794947,24.796587 C 79.909611,21.177786 67.149582,17.150157 54.432447,12.984087 C 48.769899,11.229591 43.117665,9.4061547 37.341822,8.0622117 C 31.111212,7.1916057 24.31617,11.916552 23.823072,18.365337 C 23.266077,23.046534 26.49369,27.99378 31.182447,28.959087 C 34.164378,29.536123 37.551837,28.377123 39.160572,25.705962 C 40.68357,23.510298 40.491894,20.250663 38.476197,18.421587 C 36.970467,17.011152 34.053924,16.783968 32.926197,18.777837 C 31.775595,19.861584 33.015021,22.534494 34.163697,22.134087 C 34.461174,20.534781 36.786678,19.130307 37.257447,21.421587 C 38.111043,23.850276 35.747283,26.095518 33.469947,26.371587 C 30.311547,26.806224 27.357195,24.231813 26.757447,21.205962 C 25.993101,18.138243 27.125406,14.651001 29.738697,12.805962 C 32.974212,10.148415 37.62,10.356027 41.344947,11.765337 C 49.857816,14.367183 58.351143,17.071779 66.826197,19.799712 C 75.158355,22.4832 83.535726,25.024536 91.969947,27.365337 C 95.602143,28.528866 99.709059,29.589278 103.36995,27.946587 C 108.08898,26.313063 111.50037,21.370677 110.95432,16.340337 C 110.64099,12.101841 107.05752,8.1484197 102.8262,7.7059617 z M 139.25745,7.8465867 C 135.02612,8.2890447 131.44266,12.242466 131.12932,16.480962 C 130.58328,21.511302 133.99466,26.453691 138.7137,28.087212 C 142.37458,29.729903 146.4815,28.669491 150.1137,27.505962 C 158.54792,25.165161 166.9253,22.623825 175.25745,19.940337 C 183.7325,17.212404 192.22582,14.507808 200.7387,11.905962 C 204.46364,10.496652 209.10943,10.28904 212.34495,12.946587 C 214.95824,14.791626 216.09054,18.26949 215.3262,21.337212 C 214.72645,24.363063 211.7721,26.946849 208.6137,26.512212 C 206.33636,26.236143 203.9726,23.990901 204.8262,21.562212 C 205.29697,19.270932 207.62248,20.675406 207.91995,22.274712 C 209.06862,22.675119 210.30804,20.002209 209.15745,18.918462 C 208.02972,16.924593 205.11318,17.151777 203.60745,18.562212 C 201.59175,20.391288 201.40944,23.65092 202.93245,25.846587 C 204.54118,28.517748 207.91927,29.676748 210.9012,29.099712 C 215.58995,28.134408 218.81757,23.187159 218.26057,18.505962 C 217.76747,12.057177 210.97243,7.3228587 204.74182,8.1934617 C 198.96598,9.5374047 193.31375,11.370216 187.6512,13.124712 C 174.93406,17.290782 162.17403,21.318408 149.2887,24.937212 C 147.11091,25.681041 144.83572,26.375136 142.5012,26.155962 C 138.88031,25.972743 135.23461,23.619867 134.1762,20.052837 C 133.11205,16.624737 134.52474,12.179244 138.1137,10.912212 C 140.62889,9.7390407 144.21495,11.212728 144.69495,14.062212 C 145.23523,15.761562 143.13152,18.053907 142.06057,15.777837 C 142.08094,13.909821 140.10103,15.108774 139.8387,16.265337 C 139.49598,18.117324 141.31252,19.84317 143.14807,19.593462 C 145.9066,19.51836 147.74791,16.585005 147.46057,14.015337 C 147.12868,10.799844 144.2825,8.1992397 141.10432,7.8840867 C 140.48102,7.7945697 139.86192,7.7833767 139.25745,7.8465867 z M 120.9387,11.146587 C 116.98661,11.146584 113.75745,14.375745 113.75745,18.327837 C 113.75744,22.279926 116.98661,25.509087 120.9387,25.509087 C 124.89079,25.509087 128.11057,22.279926 128.11057,18.327837 C 128.11058,14.375745 124.89079,11.146587 120.9387,11.146587 z M 120.9387,12.965337 C 123.90692,12.965337 126.3012,15.359616 126.3012,18.327837 C 126.3012,21.296055 123.90692,23.690337 120.9387,23.690337 C 117.97048,23.690334 115.5762,21.296055 115.5762,18.327837 C 115.5762,15.359616 117.97048,12.965337 120.9387,12.965337 z M 14.410572,22.593462 C 10.072713,22.944888 6.1086507,26.067432 4.6793217,30.196584 C 3.0366297,33.857472 4.0970427,37.964388 5.2605717,41.596584 C 7.6013727,50.030805 10.142709,58.408179 12.826197,66.740334 C 15.55413,75.215388 18.258726,83.708715 20.860572,92.221587 C 22.269882,95.946534 22.477494,100.59233 19.819947,103.82784 C 17.974908,106.44113 14.497038,107.57343 11.429322,106.80909 C 8.4034707,106.20934 5.8196847,103.25499 6.2543217,100.09659 C 6.5303907,97.819251 8.7756327,95.455494 11.204322,96.309087 C 13.495602,96.779856 12.091128,99.095982 10.491822,99.393462 C 10.091415,100.54214 12.764322,101.79094 13.848072,100.64034 C 15.841941,99.51261 15.614757,96.596067 14.204322,95.090337 C 12.375246,93.07464 9.1156107,92.882964 6.9199467,94.405962 C 4.2487857,96.014697 3.0897837,99.402153 3.6668217,102.38409 C 4.6321287,107.07284 9.5793747,110.30046 14.260572,109.74346 C 20.709357,109.25036 25.443675,102.45532 24.573072,96.224712 C 23.229129,90.448869 21.396318,84.796635 19.641822,79.134084 C 15.475752,66.416949 11.448123,53.656917 7.8293217,40.771584 C 7.0854927,38.593794 6.3913977,36.318609 6.6105717,33.984084 C 6.7937907,30.363198 9.1466667,26.717496 12.713697,25.659087 C 16.141797,24.594942 20.58729,26.007627 21.854322,29.596585 C 23.027493,32.111778 21.553803,35.697843 18.704322,36.177834 C 17.004972,36.718122 14.712627,34.614405 16.988697,33.543459 C 18.856713,33.563826 17.65776,31.583925 16.501197,31.321584 C 14.64921,30.97887 12.923364,32.795412 13.173072,34.630959 C 13.248174,37.389489 16.181529,39.230799 18.751197,38.943459 C 21.96669,38.611569 24.567291,35.765388 24.882447,32.587209 C 25.59858,27.600786 21.129567,22.970313 16.285572,22.612212 C 15.656778,22.543956 15.030264,22.543257 14.410572,22.593462 z M 227.67307,22.724712 C 227.05338,22.674507 226.42686,22.684581 225.79807,22.752837 C 220.95407,23.110938 216.48506,27.741414 217.2012,32.727834 C 217.51634,35.906013 220.11695,38.742819 223.33245,39.074709 C 225.90212,39.362049 228.83547,37.520739 228.91057,34.762209 C 229.16028,32.926662 227.43443,31.11012 225.58245,31.452834 C 224.42587,31.715178 223.22693,33.695073 225.09495,33.674709 C 227.37101,34.745649 225.07867,36.858747 223.37932,36.318459 C 220.52984,35.838462 219.05615,32.252406 220.22932,29.73721 C 221.49636,26.148255 225.94185,24.726192 229.36995,25.790337 C 232.93698,26.848746 235.28985,30.503823 235.47307,34.124709 C 235.69224,36.459234 234.99815,38.725044 234.25432,40.902834 C 230.63553,53.788167 226.60789,66.557574 222.44182,79.274709 C 220.68732,84.93726 218.85451,90.589497 217.51057,96.365337 C 216.63997,102.59595 221.37429,109.39099 227.82307,109.88409 C 232.50427,110.44108 237.45151,107.20409 238.41682,102.51534 C 238.99387,99.533409 237.83486,96.155322 235.1637,94.546587 C 232.96802,93.023586 229.7084,93.215262 227.87932,95.230962 C 226.46888,96.736698 226.2417,99.653235 228.23557,100.78096 C 229.31932,101.93156 231.99223,100.68276 231.59182,99.534087 C 229.99251,99.236613 228.58804,96.911106 230.87932,96.440337 C 233.30801,95.58675 235.55325,97.950498 235.82932,100.22784 C 236.26396,103.38623 233.68017,106.34996 230.65432,106.94971 C 227.58661,107.71406 224.10874,106.58175 222.2637,103.96846 C 219.60614,100.73295 219.81376,96.077784 221.22307,92.352837 C 223.82491,83.839962 226.52951,75.356013 229.25745,66.880959 C 231.94093,58.548801 234.48227,50.17143 236.82307,41.737209 C 237.98661,38.105016 239.04701,33.998094 237.40432,30.337209 C 235.97498,26.208057 232.01093,23.076138 227.67307,22.724712 z M 14.185572,112.80909 C 10.233486,112.80909 7.0043217,116.02887 7.0043217,119.98096 C 7.0043217,123.93305 10.233489,127.16221 14.185572,127.16221 C 18.137661,127.16221 21.357447,123.93305 21.357447,119.98096 C 21.357447,116.02887 18.137664,112.80909 14.185572,112.80909 z M 227.89807,112.94034 C 223.94598,112.94034 220.72619,116.16949 220.7262,120.12159 C 220.7262,124.07368 223.94598,127.29346 227.89807,127.29346 C 231.85015,127.29346 235.07932,124.07367 235.07932,120.12159 C 235.07932,116.16949 231.85015,112.94034 227.89807,112.94034 z M 14.185572,114.62784 C 17.153793,114.62784 19.538697,117.01274 19.538697,119.98096 C 19.538697,122.94918 17.153796,125.34346 14.185572,125.34346 C 11.217354,125.34346 8.8230717,122.94918 8.8230717,119.98096 C 8.8230717,117.01274 11.217357,114.62784 14.185572,114.62784 z M 227.89807,114.75909 C 230.86629,114.75909 233.26057,117.15336 233.26057,120.12159 C 233.26057,123.0898 230.86629,125.47471 227.89807,125.47471 C 224.92985,125.47471 222.54494,123.0898 222.54495,120.12159 C 222.54495,117.15337 224.92985,114.75909 227.89807,114.75909 z M 12.244947,130.09659 C 8.1490017,130.40568 4.2583407,133.3908 3.4136967,137.49346 C 2.8366588,140.47539 3.9956607,143.85348 6.6668217,145.46221 C 8.8624857,146.98521 12.122121,146.79353 13.951197,144.77784 C 15.361632,143.2721 15.588816,140.35556 13.594947,139.22784 C 12.5112,138.07724 9.8382897,139.32604 10.238697,140.47471 C 11.838003,140.77219 13.242477,143.09769 10.951197,143.56846 C 8.5225077,144.42206 6.2772657,142.0583 6.0011967,139.78096 C 5.5665597,136.62256 8.1503457,133.65883 11.176197,133.05909 C 14.243916,132.29474 17.721783,133.43642 19.566822,136.04971 C 22.224369,139.28523 22.016757,143.93102 20.607447,147.65596 C 18.005601,156.16883 15.301005,164.65278 12.573072,173.12784 C 9.8895837,181.45999 7.3482477,189.83737 5.0074467,198.27159 C 3.8439177,201.90379 2.7835048,206.0107 4.4261967,209.67159 C 6.0597177,214.39062 11.002107,217.80201 16.032447,217.25596 C 20.876442,216.89787 25.345455,212.26738 24.629322,207.28096 C 24.314166,204.10277 21.713565,201.26598 18.498072,200.93409 C 15.928404,200.64675 12.995049,202.48806 12.919947,205.24659 C 12.670236,207.08214 14.396085,208.89868 16.248072,208.55596 C 17.404635,208.29362 18.603588,206.31372 16.735572,206.33409 C 14.459502,205.26314 16.751847,203.15005 18.451197,203.69034 C 21.300681,204.17033 22.774368,207.76577 21.601197,210.28096 C 20.334165,213.86991 15.888672,215.2826 12.460572,214.21846 C 8.8935387,213.16005 6.5406657,209.50497 6.3574467,205.88409 C 6.1382727,203.54957 6.8323677,201.28375 7.5761967,199.10596 C 11.194998,186.22064 15.222627,173.45122 19.388697,160.73409 C 21.143193,155.07154 22.976004,149.4193 24.319947,143.64346 C 25.19055,137.41285 20.456232,130.61781 14.007447,130.12471 C 13.422297,130.05509 12.830082,130.05243 12.244947,130.09659 z M 229.28557,130.09659 C 228.70044,130.05243 228.10822,130.05509 227.52307,130.12471 C 221.07429,130.61781 216.33997,137.41285 217.21057,143.64346 C 218.55451,149.4193 220.38732,155.07154 222.14182,160.73409 C 226.30789,173.45122 230.33553,186.22064 233.95432,199.10596 C 234.69815,201.28375 235.39224,203.54957 235.17307,205.88409 C 234.98985,209.50497 232.63698,213.16005 229.06995,214.21846 C 225.64185,215.2826 221.19636,213.86991 219.92932,210.28096 C 218.75615,207.76577 220.22984,204.17033 223.07932,203.69034 C 224.77867,203.15005 227.07101,205.26314 224.79495,206.33409 C 222.92693,206.31372 224.12587,208.29362 225.28245,208.55596 C 227.13443,208.89868 228.86028,207.08214 228.61057,205.24659 C 228.53547,202.48806 225.60211,200.64675 223.03245,200.93409 C 219.81695,201.26598 217.21634,204.10277 216.9012,207.28096 C 216.18506,212.26738 220.65407,216.89787 225.49807,217.25596 C 230.52841,217.80201 235.47079,214.39062 237.10432,209.67159 C 238.74701,206.0107 237.68661,201.90379 236.52307,198.27159 C 234.18227,189.83737 231.64093,181.45999 228.95745,173.12784 C 226.22951,164.65278 223.52491,156.16883 220.92307,147.65596 C 219.51376,143.93102 219.30614,139.28523 221.9637,136.04971 C 223.80874,133.43642 227.28661,132.29474 230.35432,133.05909 C 233.38017,133.65883 235.96396,136.62256 235.52932,139.78096 C 235.25325,142.0583 233.00801,144.42206 230.57932,143.56846 C 228.28804,143.09769 229.69251,140.77219 231.29182,140.47471 C 231.69223,139.32604 229.01932,138.07724 227.93557,139.22784 C 225.9417,140.35556 226.16888,143.2721 227.57932,144.77784 C 229.4084,146.79353 232.66802,146.98521 234.8637,145.46221 C 237.53486,143.85348 238.69387,140.47539 238.11682,137.49346 C 237.27218,133.3908 233.38152,130.40568 229.28557,130.09659 z M 32.063697,210.77784 C 31.682739,210.79612 31.302063,210.83696 30.929322,210.90909 C 26.240565,211.87439 23.012952,216.82164 23.569947,221.50284 C 24.063045,227.95162 30.858084,232.68594 37.088697,231.81534 C 42.86454,230.47139 48.516771,228.64795 54.179322,226.89346 C 66.896457,222.72739 79.656489,218.69038 92.541822,215.07159 C 94.719612,214.32776 96.994797,213.64304 99.329322,213.86221 C 102.95021,214.04543 106.59591,216.38893 107.65432,219.95596 C 108.71846,223.38406 107.30578,227.82955 103.71682,229.09659 C 101.20163,230.26976 97.615563,228.80545 97.135572,225.95596 C 96.595284,224.25661 98.69901,221.9549 99.769947,224.23096 C 99.74958,226.09898 101.72948,224.90002 101.99182,223.74346 C 102.33454,221.89147 100.51799,220.17501 98.682447,220.42471 C 95.92392,220.49981 94.082607,223.4238 94.369947,225.99346 C 94.701837,229.20896 97.548021,231.80955 100.7262,232.12471 C 105.71262,232.84085 110.34309,228.37184 110.7012,223.52784 C 111.24724,218.4975 107.83585,213.5551 103.11682,211.92159 C 99.455934,210.2789 95.349021,211.3393 91.716822,212.50284 C 83.282601,214.84364 74.895852,217.38498 66.563697,220.06846 C 58.088643,222.79639 49.604694,225.501 41.091822,228.10284 C 37.366875,229.51215 32.721087,229.71976 29.485572,227.06221 C 26.872281,225.21717 25.739976,221.7393 26.504322,218.67159 C 27.10407,215.64574 30.058419,213.07133 33.216822,213.50596 C 35.494158,213.78203 37.857915,216.0179 37.004322,218.44659 C 36.533553,220.73787 34.208049,219.3334 33.910572,217.73409 C 32.761896,217.33368 31.522467,220.00659 32.673072,221.09034 C 33.800799,223.08421 36.717339,222.85701 38.223072,221.44659 C 40.238769,219.61751 40.42107,216.35787 38.898072,214.16221 C 37.49043,211.82495 34.730409,210.64985 32.063697,210.77784 z M 209.46682,210.77784 C 206.80011,210.64985 204.04009,211.82495 202.63245,214.16221 C 201.10944,216.35787 201.29175,219.61751 203.30745,221.44659 C 204.81318,222.85701 207.72972,223.08421 208.85745,221.09034 C 210.00804,220.00659 208.76862,217.33368 207.61995,217.73409 C 207.32248,219.3334 204.99697,220.73787 204.5262,218.44659 C 203.6726,216.0179 206.03636,213.78203 208.3137,213.50596 C 211.4721,213.07133 214.42645,215.64574 215.0262,218.67159 C 215.79054,221.7393 214.65824,225.21717 212.04495,227.06221 C 208.80943,229.71976 204.16364,229.51215 200.4387,228.10284 C 191.92582,225.501 183.4325,222.79639 174.95745,220.06846 C 166.6253,217.38498 158.24792,214.84364 149.8137,212.50284 C 146.1815,211.3393 142.07458,210.2789 138.4137,211.92159 C 133.69466,213.5551 130.28328,218.4975 130.82932,223.52784 C 131.18742,228.37184 135.8179,232.84085 140.80432,232.12471 C 143.9825,231.80955 146.82868,229.20896 147.16057,225.99346 C 147.44791,223.4238 145.6066,220.49981 142.84807,220.42471 C 141.01252,220.17501 139.19598,221.89147 139.5387,223.74346 C 139.80103,224.90002 141.78094,226.09898 141.76057,224.23096 C 142.83152,221.9549 144.93524,224.25661 144.39495,225.95596 C 143.91495,228.80545 140.32889,230.26976 137.8137,229.09659 C 134.22474,227.82955 132.81205,223.38406 133.8762,219.95596 C 134.93461,216.38893 138.58031,214.04543 142.2012,213.86221 C 144.53572,213.64304 146.81091,214.32776 148.9887,215.07159 C 161.87403,218.69038 174.63406,222.72739 187.3512,226.89346 C 193.01375,228.64795 198.66598,230.47139 204.44182,231.81534 C 210.67243,232.68594 217.46747,227.95162 217.96057,221.50284 C 218.51757,216.82164 215.28995,211.87439 210.6012,210.90909 C 210.22846,210.83696 209.84778,210.79612 209.46682,210.77784 z M 120.68557,214.36846 C 116.73349,214.36846 113.50432,217.58825 113.50432,221.54034 C 113.50432,225.49243 116.73349,228.72159 120.68557,228.72159 C 124.63766,228.72158 127.85744,225.49243 127.85745,221.54034 C 127.85745,217.58824 124.63767,214.36845 120.68557,214.36846 z M 120.68557,216.18721 C 123.6538,216.18721 126.03869,218.57212 126.0387,221.54034 C 126.0387,224.50856 123.6538,226.90284 120.68557,226.90284 C 117.71736,226.90284 115.32307,224.50856 115.32307,221.54034 C 115.32307,218.57212 117.71736,216.18722 120.68557,216.18721 z " id="path6744"/>
    <path style="fill:#000000;fill-opacity:0.09411765;fill-rule:evenodd;stroke:none;stroke-width:2;stroke-linecap:butt;stroke-linejoin:miter;stroke-miterlimit:4;stroke-opacity:1" d="M 101.97796,7.7032845 C 101.37348,7.640076 100.75438,7.6512678 100.13108,7.7407845 C 96.952902,8.0559405 94.106721,10.665916 93.774831,13.88141 C 93.487488,16.451078 95.328804,19.375057 98.087331,19.45016 C 99.922875,19.699867 101.73942,17.974021 101.39671,16.122035 C 101.13436,14.965471 99.154464,13.766519 99.174831,15.634535 C 98.103891,17.910605 96.000168,15.618259 96.540456,13.918909 C 97.020444,11.069425 100.60651,9.5957385 103.12171,10.76891 C 106.71067,12.035941 108.12335,16.481434 107.05921,19.909534 C 106.00079,23.476565 102.35509,25.829441 98.734206,26.01266 C 96.399687,26.231833 94.124496,25.537738 91.946706,24.79391 C 79.06137,21.175109 66.301341,17.147479 53.584206,12.981409 C 47.921658,11.226914 42.269424,9.4034775 36.493581,8.0595345 C 30.262971,7.1889312 23.467928,11.913875 22.974829,18.362659 C 22.417834,23.043857 25.645447,27.991103 30.334206,28.956409 C 33.316137,29.533447 36.703596,28.374446 38.312331,25.703284 C 39.835329,23.50762 39.643653,20.247985 37.627956,18.41891 C 36.122226,17.008474 33.205683,16.781291 32.077956,18.77516 C 30.927354,19.858906 32.16678,22.531816 33.315456,22.13141 C 33.612933,20.532103 35.938437,19.127629 36.409206,21.41891 C 37.262802,23.847599 34.899042,26.09284 32.621706,26.36891 C 29.463304,26.803546 26.508952,24.229135 25.909204,21.203284 C 25.144858,18.135566 26.277164,14.648324 28.890454,12.803285 C 32.125971,10.145737 36.771759,10.353349 40.496706,11.762659 C 49.009575,14.364505 57.502902,17.069101 65.977956,19.797034 C 74.310114,22.480522 82.687485,25.021858 91.121706,27.362659 C 94.753902,28.52619 98.860818,29.586602 102.52171,27.94391 C 107.24074,26.310388 110.65213,21.367999 110.10608,16.33766 C 109.79275,12.099164 106.20928,8.1457446 101.97796,7.7032845 z M 138.40921,7.8439095 C 134.17788,8.2863696 130.59442,12.239789 130.28108,16.478285 C 129.73504,21.508624 133.14642,26.451014 137.86546,28.084535 C 141.52634,29.727227 145.63326,28.666815 149.26546,27.503284 C 157.69968,25.162483 166.07706,22.621147 174.40921,19.937659 C 182.88426,17.209726 191.37758,14.50513 199.89046,11.903284 C 203.6154,10.493974 208.26119,10.286362 211.49671,12.94391 C 214.11,14.788949 215.2423,18.266815 214.47796,21.334535 C 213.87821,24.360385 210.92386,26.944172 207.76546,26.509535 C 205.48812,26.233465 203.12436,23.988224 203.97796,21.559535 C 204.44872,19.268254 206.77424,20.672729 207.07171,22.272035 C 208.22038,22.672441 209.4598,19.999531 208.30921,18.915785 C 207.18148,16.921916 204.26494,17.149099 202.75921,18.559535 C 200.74351,20.38861 200.5612,23.648245 202.08421,25.843909 C 203.69294,28.515073 207.07102,29.674072 210.05296,29.097034 C 214.74171,28.13173 217.96933,23.184482 217.41233,18.503284 C 216.91923,12.0545 210.12419,7.3201815 203.89358,8.1907845 C 198.11774,9.5347275 192.46551,11.367539 186.80296,13.122034 C 174.08582,17.288104 161.32579,21.315733 148.44046,24.934535 C 146.26267,25.678363 143.98748,26.372459 141.65296,26.153285 C 138.03207,25.970066 134.38637,23.61719 133.32796,20.050159 C 132.26381,16.622059 133.6765,12.176566 137.26546,10.909535 C 139.78065,9.7363635 143.36671,11.21005 143.84671,14.059534 C 144.38699,15.758884 142.28328,18.05123 141.21233,15.77516 C 141.2327,13.907144 139.25279,15.106096 138.99046,16.26266 C 138.64774,18.114646 140.46428,19.840492 142.29983,19.590785 C 145.05836,19.515682 146.89967,16.582327 146.61233,14.012659 C 146.28044,10.797166 143.43426,8.1965652 140.25608,7.8814095 C 139.63278,7.7918928 139.01368,7.780701 138.40921,7.8439095 z M 120.09046,11.14391 C 116.13837,11.143909 112.90921,14.37307 112.90921,18.32516 C 112.9092,22.277249 116.13837,25.50641 120.09046,25.50641 C 124.04255,25.50641 127.26233,22.277249 127.26233,18.32516 C 127.26233,14.37307 124.04255,11.143911 120.09046,11.14391 z M 120.09046,12.96266 C 123.05868,12.96266 125.45296,15.356939 125.45296,18.32516 C 125.45296,21.29338 123.05868,23.687659 120.09046,23.687659 C 117.12224,23.687659 114.72796,21.29338 114.72796,18.32516 C 114.72796,15.356939 117.12224,12.96266 120.09046,12.96266 z M 13.56233,22.590785 C 9.2244717,22.942211 5.26041,26.064756 3.8310795,30.193911 C 2.1883873,33.854799 3.2488011,37.961712 4.4123295,41.593911 C 6.7531305,50.028132 9.2944665,58.405506 11.977955,66.737661 C 14.705887,75.212715 17.410484,83.706042 20.012329,92.218911 C 21.42164,95.943858 21.629251,100.58965 18.971705,103.82516 C 17.126665,106.43845 13.648798,107.57075 10.581079,106.80641 C 7.5552285,106.20666 4.9714425,103.25231 5.4060795,100.09391 C 5.6821485,97.816575 7.9273908,95.452818 10.356079,96.306411 C 12.64736,96.77718 11.242886,99.093306 9.6435795,99.390786 C 9.2431725,100.53946 11.916082,101.78827 12.99983,100.63766 C 14.993698,99.509934 14.766516,96.593391 13.356079,95.087661 C 11.527003,93.071964 8.2673691,92.880288 6.0717045,94.403286 C 3.4005435,96.012021 2.2415413,99.399477 2.8185796,102.38141 C 3.7838865,107.07017 8.7311331,110.29778 13.41233,109.74079 C 19.861114,109.24769 24.595432,102.45265 23.724829,96.222036 C 22.380886,90.446193 20.548076,84.793962 18.793579,79.131411 C 14.627509,66.414276 10.599881,53.654244 6.9810795,40.768911 C 6.2372505,38.591121 5.5431558,36.315936 5.7623295,33.981411 C 5.9455485,30.360525 8.2984251,26.714821 11.865455,25.656409 C 15.293554,24.592266 19.739047,26.004952 21.006079,29.593909 C 22.17925,32.109105 20.705563,35.695167 17.856079,36.175161 C 16.156729,36.715449 13.864384,34.611729 16.140455,33.540786 C 18.008471,33.561153 16.809517,31.581249 15.652954,31.318911 C 13.800968,30.976197 12.075122,32.792739 12.324829,34.628286 C 12.399932,37.386816 15.333286,39.228123 17.902954,38.940786 C 21.118447,38.608896 23.719048,35.762715 24.034204,32.584536 C 24.750338,27.598111 20.281325,22.967636 15.43733,22.609534 C 14.808537,22.541279 14.182024,22.540581 13.56233,22.590785 z M 226.82483,22.722034 C 226.20514,22.671831 225.57862,22.681904 224.94983,22.750159 C 220.10583,23.108261 215.63682,27.738737 216.35296,32.725161 C 216.6681,35.90334 219.26871,38.740146 222.48421,39.072036 C 225.05387,39.359373 227.98723,37.518066 228.06233,34.759536 C 228.31204,32.923986 226.58619,31.107447 224.73421,31.450161 C 223.57763,31.712502 222.37869,33.6924 224.24671,33.672036 C 226.52277,34.742976 224.23043,36.856074 222.53108,36.315786 C 219.68159,35.835786 218.20791,32.249733 219.38108,29.734534 C 220.64812,26.145578 225.09361,24.723516 228.52171,25.78766 C 232.08874,26.84607 234.44161,30.50115 234.62483,34.122036 C 234.844,36.456558 234.14991,38.722371 233.40608,40.900161 C 229.78729,53.785494 225.75965,66.554901 221.59358,79.272036 C 219.83908,84.934587 218.00627,90.586821 216.66233,96.362661 C 215.79173,102.59327 220.52605,109.38831 226.97483,109.88141 C 231.65603,110.43841 236.60327,107.20142 237.56858,102.51266 C 238.14562,99.530733 236.98662,96.152646 234.31546,94.543911 C 232.11978,93.02091 228.86016,93.212586 227.03108,95.228286 C 225.62064,96.734022 225.39346,99.650559 227.38733,100.77829 C 228.47108,101.92888 231.14399,100.68009 230.74358,99.531411 C 229.14427,99.233937 227.7398,96.90843 230.03108,96.437661 C 232.45977,95.584074 234.70501,97.947822 234.98108,100.22516 C 235.41572,103.38356 232.83193,106.34729 229.80608,106.94704 C 226.73837,107.71139 223.26049,106.57907 221.41546,103.96579 C 218.7579,100.73027 218.96552,96.075108 220.37483,92.350161 C 222.97667,83.837289 225.68127,75.35334 228.40921,66.878286 C 231.09269,58.546128 233.63403,50.168757 235.97483,41.734536 C 237.13837,38.10234 238.19877,33.995421 236.55608,30.334536 C 235.12674,26.20538 231.16269,23.073461 226.82483,22.722034 z M 13.33733,112.80641 C 9.3852456,112.80641 6.1560795,116.0262 6.1560795,119.97829 C 6.1560801,123.93037 9.3852465,127.15954 13.33733,127.15954 C 17.289421,127.15953 20.509204,123.93037 20.509204,119.97829 C 20.509204,116.0262 17.289421,112.80641 13.33733,112.80641 z M 227.04983,112.93766 C 223.09774,112.93766 219.87795,116.16682 219.87796,120.11891 C 219.87796,124.071 223.09774,127.29079 227.04983,127.29079 C 231.00191,127.29079 234.23108,124.071 234.23108,120.11891 C 234.23108,116.16682 231.00191,112.93766 227.04983,112.93766 z M 13.33733,114.62516 C 16.305553,114.62516 18.690455,117.01006 18.690455,119.97829 C 18.690455,122.94651 16.305553,125.34079 13.33733,125.34079 C 10.369114,125.34079 7.9748295,122.94651 7.9748295,119.97829 C 7.9748292,117.01006 10.369115,114.62516 13.33733,114.62516 z M 227.04983,114.75641 C 230.01805,114.75641 232.41233,117.15069 232.41233,120.11891 C 232.41233,123.08713 230.01805,125.47203 227.04983,125.47204 C 224.08161,125.47204 221.6967,123.08713 221.69671,120.11891 C 221.69671,117.15069 224.08161,114.75641 227.04983,114.75641 z M 11.396705,130.09391 C 7.3007604,130.403 3.4100982,133.38812 2.5654546,137.49079 C 1.9884169,140.47271 3.1474185,143.8508 5.8185795,145.45954 C 8.0142435,146.98254 11.273878,146.79086 13.102955,144.77516 C 14.513389,143.26942 14.740573,140.35289 12.746704,139.22516 C 11.662957,138.07456 8.9900475,139.32336 9.3904545,140.47204 C 10.98976,140.76951 12.394234,143.09502 10.102955,143.56579 C 7.6742652,144.41938 5.4290235,142.05562 5.1529545,139.77829 C 4.7183181,136.61989 7.3021035,133.65616 10.327955,133.05641 C 13.395673,132.29206 16.87354,133.43374 18.71858,136.04704 C 21.376126,139.28255 21.168515,143.92834 19.759204,147.65329 C 17.157358,156.16616 14.452762,164.65011 11.72483,173.12516 C 9.0413421,181.45732 6.5000055,189.83469 4.1592045,198.26891 C 2.9956756,201.90111 1.9352623,206.00802 3.5779545,209.66891 C 5.2114758,214.38795 10.153864,217.79933 15.184204,217.25329 C 20.0282,216.89519 24.497212,212.26471 23.781079,207.27829 C 23.465923,204.1001 20.865322,201.2633 17.649829,200.93141 C 15.080162,200.64408 12.146807,202.48538 12.071705,205.24391 C 11.821996,207.07947 13.547842,208.896 15.399829,208.55329 C 16.556393,208.29094 17.755346,206.31104 15.887329,206.33141 C 13.61126,205.26046 15.903604,203.14737 17.602954,203.68766 C 20.452438,204.16765 21.926126,207.76309 20.752954,210.27829 C 19.485923,213.86724 15.04043,215.27993 11.612329,214.21579 C 8.0452983,213.15738 5.6924235,209.5023 5.5092045,205.88141 C 5.2900302,203.54689 5.9841255,201.28108 6.7279545,199.10329 C 10.346755,186.21796 14.374384,173.44855 18.540454,160.73141 C 20.294951,155.06886 22.127761,149.41663 23.471704,143.64079 C 24.342308,137.41018 19.607989,130.61513 13.159204,130.12204 C 12.574055,130.05241 11.981839,130.04975 11.396705,130.09391 z M 228.43733,130.09391 C 227.8522,130.04975 227.25998,130.05241 226.67483,130.12204 C 220.22605,130.61513 215.49173,137.41018 216.36233,143.64079 C 217.70627,149.41663 219.53908,155.06886 221.29358,160.73141 C 225.45965,173.44855 229.48729,186.21796 233.10608,199.10329 C 233.84991,201.28108 234.544,203.54689 234.32483,205.88141 C 234.14161,209.5023 231.78874,213.15738 228.22171,214.21579 C 224.79361,215.27993 220.34812,213.86724 219.08108,210.27829 C 217.90791,207.76309 219.38159,204.16765 222.23108,203.68766 C 223.93043,203.14737 226.22277,205.26046 223.94671,206.33141 C 222.07869,206.31104 223.27763,208.29094 224.43421,208.55329 C 226.28619,208.896 228.01204,207.07947 227.76233,205.24391 C 227.68723,202.48538 224.75387,200.64408 222.18421,200.93141 C 218.96871,201.2633 216.3681,204.1001 216.05296,207.27829 C 215.33682,212.26471 219.80583,216.89519 224.64983,217.25329 C 229.68017,217.79933 234.62255,214.38795 236.25608,209.66891 C 237.89877,206.00802 236.83837,201.90111 235.67483,198.26891 C 233.33403,189.83469 230.79269,181.45732 228.10921,173.12516 C 225.38127,164.65011 222.67667,156.16616 220.07483,147.65329 C 218.66552,143.92834 218.4579,139.28255 221.11546,136.04704 C 222.96049,133.43374 226.43837,132.29206 229.50608,133.05641 C 232.53193,133.65616 235.11571,136.61989 234.68108,139.77829 C 234.40501,142.05562 232.15977,144.41938 229.73108,143.56579 C 227.4398,143.09502 228.84427,140.76951 230.44358,140.47204 C 230.84399,139.32336 228.17108,138.07456 227.08733,139.22516 C 225.09346,140.35289 225.32064,143.26942 226.73108,144.77516 C 228.56016,146.79086 231.81978,146.98254 234.01546,145.45954 C 236.68662,143.8508 237.84562,140.47271 237.26858,137.49079 C 236.42394,133.38812 232.53328,130.403 228.43733,130.09391 z M 31.215456,210.77516 C 30.834498,210.79345 30.453822,210.83428 30.081081,210.90641 C 25.392322,211.87172 22.164709,216.81896 22.721704,221.50016 C 23.214803,227.94895 30.009843,232.68326 36.240456,231.81266 C 42.016299,230.46872 47.66853,228.64527 53.331081,226.89079 C 66.048216,222.72472 78.808248,218.68771 91.693581,215.06891 C 93.871371,214.32508 96.146556,213.64037 98.481081,213.85954 C 102.10197,214.04275 105.74767,216.38625 106.80608,219.95329 C 107.87022,223.38139 106.45753,227.82687 102.86858,229.09391 C 100.35339,230.26708 96.767322,228.80278 96.287331,225.95329 C 95.747043,224.25394 97.850769,221.95222 98.921706,224.22829 C 98.901339,226.0963 100.88124,224.89734 101.14358,223.74079 C 101.48629,221.8888 99.669753,220.17233 97.834206,220.42204 C 95.075679,220.49714 93.234366,223.42112 93.521706,225.99079 C 93.853596,229.20628 96.69978,231.80687 99.877956,232.12204 C 104.86438,232.83817 109.49485,228.36916 109.85296,223.52516 C 110.399,218.49482 106.98761,213.55242 102.26858,211.91891 C 98.607693,210.27622 94.50078,211.33663 90.868581,212.50016 C 82.43436,214.84096 74.047611,217.3823 65.715456,220.06579 C 57.240402,222.79372 48.756453,225.49832 40.243581,228.10016 C 36.518634,229.50947 31.872846,229.71709 28.637329,227.05954 C 26.024038,225.2145 24.891733,221.73663 25.656079,218.66891 C 26.255827,215.64306 29.210176,213.06865 32.368581,213.50329 C 34.645917,213.77935 37.009674,216.01522 36.156081,218.44391 C 35.685312,220.73519 33.359808,219.33073 33.062331,217.73141 C 31.913655,217.331 30.674226,220.00391 31.824831,221.08766 C 32.952558,223.08153 35.869098,222.85434 37.374831,221.44391 C 39.390528,219.61483 39.572829,216.35519 38.049831,214.15954 C 36.642189,211.82227 33.882168,210.64717 31.215456,210.77516 z M 208.61858,210.77516 C 205.95187,210.64717 203.19185,211.82227 201.78421,214.15954 C 200.2612,216.35519 200.44351,219.61483 202.45921,221.44391 C 203.96494,222.85434 206.88148,223.08153 208.00921,221.08766 C 209.1598,220.00391 207.92038,217.331 206.77171,217.73141 C 206.47424,219.33073 204.14873,220.73519 203.67796,218.44391 C 202.82436,216.01522 205.18812,213.77935 207.46546,213.50329 C 210.62386,213.06865 213.57821,215.64306 214.17796,218.66891 C 214.9423,221.73663 213.81,225.2145 211.19671,227.05954 C 207.96119,229.71709 203.3154,229.50947 199.59046,228.10016 C 191.07758,225.49832 182.58426,222.79372 174.10921,220.06579 C 165.77706,217.3823 157.39968,214.84096 148.96546,212.50016 C 145.33326,211.33663 141.22634,210.27622 137.56546,211.91891 C 132.84642,213.55242 129.43504,218.49482 129.98108,223.52516 C 130.33918,228.36916 134.96966,232.83817 139.95608,232.12204 C 143.13426,231.80687 145.98044,229.20628 146.31233,225.99079 C 146.59967,223.42112 144.75836,220.49714 141.99983,220.42204 C 140.16428,220.17233 138.34774,221.8888 138.69046,223.74079 C 138.95279,224.89734 140.9327,226.0963 140.91233,224.22829 C 141.98328,221.95222 144.08699,224.25394 143.54671,225.95329 C 143.06671,228.80278 139.48065,230.26708 136.96546,229.09391 C 133.3765,227.82687 131.96381,223.38139 133.02796,219.95329 C 134.08637,216.38625 137.73207,214.04275 141.35296,213.85954 C 143.68748,213.64037 145.96267,214.32508 148.14046,215.06891 C 161.02579,218.68771 173.78582,222.72472 186.50296,226.89079 C 192.16551,228.64527 197.81774,230.46872 203.59358,231.81266 C 209.82419,232.68326 216.61923,227.94895 217.11233,221.50016 C 217.66933,216.81896 214.44171,211.87172 209.75296,210.90641 C 209.38021,210.83428 208.99954,210.79345 208.61858,210.77516 z M 119.83733,214.36579 C 115.88525,214.36579 112.65608,217.58558 112.65608,221.53766 C 112.65608,225.48975 115.88525,228.71892 119.83733,228.71891 C 123.78942,228.71891 127.0092,225.48976 127.00921,221.53766 C 127.00921,217.58557 123.78943,214.36578 119.83733,214.36579 z M 119.83733,216.18454 C 122.80555,216.18454 125.19045,218.56945 125.19046,221.53766 C 125.19046,224.50588 122.80556,226.90017 119.83733,226.90016 C 116.86912,226.90016 114.47483,224.50589 114.47483,221.53766 C 114.47483,218.56944 116.86912,216.18454 119.83733,216.18454 z " id="path5853"/>
    <g transform="scale(0.3,0.3)" id="g5837">
      <path id="path1288" d="M 49.080811,70.727246 C 65.227461,71.920916 80.134441,87.349108 77.747331,103.97052 C 76.696811,114.56445 68.006511,124.03501 57.288201,125.14131 C 48.722641,126.09911 38.968971,119.96531 38.718631,110.77021 C 37.886271,104.65172 43.633311,98.59764 49.806601,99.74002 C 53.661811,100.61449 57.660451,107.21211 51.433731,107.14422 C 43.846831,110.71403 51.491511,117.74168 57.156011,115.94072 C 66.654291,114.34074 71.556841,102.37793 67.646271,93.99395 C 63.422831,82.030758 48.609711,77.320375 37.182711,80.867521 C 25.292611,84.395558 17.454481,96.56193 16.843751,108.63155 C 16.113171,116.4133 18.417151,123.97685 20.896581,131.23615 C 32.959251,174.18726 46.396381,216.73549 60.283281,259.12594 C 66.131601,278.00111 72.215171,296.84982 76.694981,316.10263 C 79.596991,336.87133 63.826191,359.51049 42.330241,361.15415 C 26.726251,363.0108 10.239331,352.24608 7.021641,336.61689 C 5.09818,326.67713 8.965471,315.40865 17.869341,310.0462 C 25.188221,304.96954 36.042931,305.59657 42.139851,312.31556 C 46.841301,317.33467 47.598551,327.05109 40.952321,330.81018 C 37.339831,334.64552 28.434061,330.5009 29.768751,326.67198 C 35.099771,325.68039 39.782171,317.93519 32.144571,316.36596 C 24.048941,313.52065 16.576911,321.40061 15.656681,328.99173 C 14.207891,339.51973 22.796251,349.38684 32.882421,351.386 C 43.108151,353.93382 54.708521,350.14536 60.858651,341.43439 C 69.717141,330.64934 69.030101,315.15244 64.332401,302.73595 C 55.659581,274.35972 46.641931,246.07542 37.548821,217.82524 C 28.603861,190.05138 20.138461,162.11982 12.335791,134.00575 C 8.457361,121.89843 4.92489,108.20719 10.400531,96.00423 C 15.845601,80.274122 32.313011,68.907095 49.080811,70.727246 z " style="fill:url(#linearGradient9126);fill-opacity:1;fill-rule:evenodd;stroke:url(#linearGradient9128);stroke-width:6.66666698;stroke-linecap:butt;stroke-linejoin:miter;stroke-miterlimit:4;stroke-opacity:1"/>
      <path id="path4701" d="M 364.63494,49.820327 C 363.44127,33.673677 348.01308,18.766697 331.39167,21.153807 C 320.79774,22.204327 311.32718,30.894627 310.22088,41.612937 C 309.26308,50.178497 315.39689,59.932167 324.59198,60.182507 C 330.71047,61.014867 336.76454,55.267827 335.62216,49.094537 C 334.74769,45.239327 328.15008,41.240687 328.21797,47.467407 C 324.64816,55.054307 317.62052,47.409627 319.42148,41.745127 C 321.02145,32.246847 332.98426,27.344297 341.36824,31.254867 C 353.33143,35.478307 358.04181,50.291427 354.49467,61.718427 C 350.96663,73.608527 338.80026,81.446657 326.73064,82.057387 C 318.9489,82.787967 311.38534,80.483987 304.12604,78.004557 C 261.17493,65.941887 218.6267,52.504757 176.23625,38.617857 C 157.36108,32.769537 138.51237,26.685967 119.25956,22.206157 C 98.49086,19.304147 75.851696,35.074947 74.208036,56.570897 C 72.351386,72.174887 83.116106,88.66181 98.7453,91.8795 C 108.68506,93.80296 119.95354,89.93567 125.31599,81.031797 C 130.39265,73.712917 129.76562,62.858207 123.04663,56.761287 C 118.02752,52.059837 108.3111,51.302587 104.55201,57.948817 C 100.71667,61.561307 104.86129,70.467077 108.69021,69.132387 C 109.6818,63.801367 117.427,59.118967 118.99623,66.756567 C 121.84154,74.852197 113.96158,82.324227 106.37046,83.244457 C 95.84246,84.693247 85.975346,76.104887 83.976186,66.018717 C 81.428366,55.792987 85.216826,44.192617 93.927796,38.042487 C 104.71285,29.183997 120.20975,29.871037 132.62624,34.568737 C 161.00247,43.241557 189.28677,52.259207 217.53695,61.352317 C 245.31081,70.297277 273.24237,78.762677 301.35644,86.565347 C 313.46377,90.44378 327.155,93.97625 339.35796,88.50061 C 355.08807,83.055537 366.45509,66.588127 364.63494,49.820327 z " style="fill:url(#linearGradient9130);fill-opacity:1;fill-rule:evenodd;stroke:url(#linearGradient9132);stroke-width:6.66666698;stroke-linecap:butt;stroke-linejoin:miter;stroke-miterlimit:4;stroke-opacity:1"/>
      <path id="path4709" d="M 397.92332,32.515523 C 384.74971,32.515523 374,43.265221 374,56.438854 C 374,69.612486 384.74971,80.362183 397.92332,80.362183 C 411.09696,80.362183 421.84667,69.612486 421.84667,56.438854 C 421.84667,43.265221 411.09696,32.515527 397.92332,32.515523 z M 397.92332,38.576858 C 407.8174,38.57686 415.78533,46.544786 415.78533,56.438854 C 415.78533,66.332922 407.8174,74.300849 397.92332,74.300849 C 388.02927,74.300849 380.06133,66.332922 380.06133,56.438854 C 380.06133,46.544786 388.02927,38.576858 397.92332,38.576858 z " style="fill:url(#linearGradient9134);fill-opacity:1;fill-rule:evenodd;stroke:url(#linearGradient9136);stroke-width:6.66666317;stroke-miterlimit:4;stroke-opacity:1"/>
      <path id="path5503" d="M 42.07665,371.36218 C 28.90304,371.36218 18.15333,382.11188 18.15333,395.28551 C 18.15333,408.45914 28.90304,419.20884 42.07665,419.20884 C 55.25029,419.20884 66,408.45914 66,395.28551 C 66,382.11188 55.25029,371.36219 42.07665,371.36218 z M 42.07665,377.42352 C 51.97073,377.42352 59.93866,385.39144 59.93866,395.28551 C 59.93866,405.17958 51.97073,413.14751 42.07665,413.14751 C 32.1826,413.14751 24.21466,405.17958 24.21466,395.28551 C 24.21466,385.39144 32.1826,377.42352 42.07665,377.42352 z " style="fill:url(#linearGradient9138);fill-opacity:1;fill-rule:evenodd;stroke:url(#linearGradient9140);stroke-width:6.66666317;stroke-miterlimit:4;stroke-opacity:1"/>
      <path id="path5517" d="M 747.45819,71.188291 C 731.31154,72.381961 716.40456,87.810153 718.79167,104.43156 C 719.84219,115.02549 728.53249,124.49606 739.2508,125.60236 C 747.81636,126.56016 757.57003,120.42636 757.82037,111.23126 C 758.65273,105.11276 752.90569,99.05868 746.7324,100.20106 C 742.87719,101.07554 738.87855,107.67315 745.10527,107.60527 C 752.69217,111.17507 745.04749,118.20273 739.38299,116.40177 C 729.88471,114.80178 724.98216,102.83898 728.89273,94.45499 C 733.11617,82.491803 747.92929,77.78142 759.35629,81.328566 C 771.24639,84.856603 779.08452,97.02298 779.69525,109.0926 C 780.42583,116.87435 778.12185,124.4379 775.64242,131.6972 C 763.57975,174.64831 750.14262,217.19654 736.25572,259.58699 C 730.4074,278.46215 724.32383,297.31087 719.84402,316.56367 C 716.94201,337.33238 732.71281,359.97154 754.20876,361.6152 C 769.81275,363.47185 786.29967,352.70713 789.51736,337.07794 C 791.44082,327.13817 787.57353,315.8697 778.66966,310.50725 C 771.35078,305.43059 760.49607,306.05761 754.39915,312.77661 C 749.6977,317.79572 748.94045,327.51214 755.58668,331.27123 C 759.19917,335.10656 768.10494,330.96195 766.77025,327.13303 C 761.43923,326.14144 756.75683,318.39623 764.39443,316.827 C 772.49006,313.9817 779.96209,321.86165 780.88232,329.45278 C 782.33111,339.98077 773.74275,349.84789 763.65658,351.84705 C 753.43085,354.39487 741.83048,350.6064 735.68035,341.89544 C 726.82186,331.11039 727.5089,315.61349 732.2066,303.197 C 740.87942,274.82076 749.89707,246.53647 758.99018,218.28629 C 767.93514,190.51243 776.40054,162.58087 784.20321,134.4668 C 788.08164,122.35948 791.61411,108.66823 786.13847,96.46528 C 780.6934,80.735167 764.22599,69.36814 747.45819,71.188291 z " style="fill:url(#linearGradient9142);fill-opacity:1;fill-rule:evenodd;stroke:url(#linearGradient9144);stroke-width:6.66666698;stroke-linecap:butt;stroke-linejoin:miter;stroke-miterlimit:4;stroke-opacity:1"/>
      <path id="path5519" d="M 431.90406,50.281372 C 433.09773,34.134722 448.52592,19.227742 465.14733,21.614852 C 475.74126,22.665372 485.21182,31.355672 486.31812,42.073982 C 487.27592,50.639542 481.14211,60.393212 471.94702,60.643552 C 465.82853,61.475912 459.77446,55.728872 460.91684,49.555582 C 461.79131,45.700372 468.38892,41.701732 468.32103,47.928452 C 471.89084,55.515352 478.91848,47.870672 477.11752,42.206172 C 475.51755,32.707892 463.55474,27.805342 455.17076,31.715912 C 443.20757,35.939352 438.49719,50.752472 442.04433,62.179472 C 445.57237,74.069572 457.73874,81.907702 469.80836,82.518432 C 477.5901,83.249012 485.15366,80.945032 492.41296,78.465602 C 535.36407,66.402932 577.9123,52.965802 620.30275,39.078902 C 639.17792,33.230582 658.02663,27.147012 677.27944,22.667202 C 698.04814,19.765192 720.6873,35.535992 722.33096,57.031942 C 724.18761,72.635932 713.42289,89.12286 697.7937,92.34054 C 687.85394,94.264 676.58546,90.39672 671.22301,81.492842 C 666.14635,74.173962 666.77338,63.319252 673.49237,57.222332 C 678.51148,52.520882 688.2279,51.763632 691.98699,58.409862 C 695.82233,62.022352 691.67771,70.928122 687.84879,69.593432 C 686.8572,64.262412 679.112,59.580012 677.54277,67.217612 C 674.69746,75.313242 682.57742,82.785272 690.16854,83.705502 C 700.69654,85.154292 710.56365,76.565932 712.56281,66.479762 C 715.11063,56.254032 711.32217,44.653662 702.6112,38.503532 C 691.82615,29.645042 676.32925,30.332082 663.91276,35.029782 C 635.53653,43.702602 607.25223,52.720252 579.00205,61.813362 C 551.22819,70.758322 523.29663,79.223722 495.18256,87.026392 C 483.07523,90.90483 469.384,94.43729 457.18104,88.96165 C 441.45093,83.516582 430.08391,67.049172 431.90406,50.281372 z " style="fill:url(#linearGradient9146);fill-opacity:1;fill-rule:evenodd;stroke:url(#linearGradient9148);stroke-width:6.66666698;stroke-linecap:butt;stroke-linejoin:miter;stroke-miterlimit:4;stroke-opacity:1"/>
      <path id="path5523" d="M 754.46235,371.82323 C 767.63596,371.82323 778.38567,382.57292 778.38567,395.74656 C 778.38567,408.92019 767.63596,419.66989 754.46235,419.66989 C 741.28871,419.66989 730.539,408.92019 730.539,395.74656 C 730.539,382.57292 741.28871,371.82324 754.46235,371.82323 z M 754.46235,377.88457 C 744.56827,377.88457 736.60034,385.85249 736.60034,395.74656 C 736.60034,405.64062 744.56827,413.60856 754.46235,413.60856 C 764.3564,413.60856 772.32434,405.64062 772.32434,395.74656 C 772.32434,385.85249 764.3564,377.88457 754.46235,377.88457 z " style="fill:url(#linearGradient9150);fill-opacity:1;fill-rule:evenodd;stroke:url(#linearGradient9152);stroke-width:6.66666317;stroke-miterlimit:4;stroke-opacity:1"/>
      <path id="path5543" d="M 48.234141,719.53605 C 64.380791,718.34238 79.287771,702.91419 76.900661,686.29278 C 75.850141,675.69885 67.159841,666.22829 56.441531,665.12199 C 47.875971,664.16419 38.122301,670.29799 37.871961,679.49309 C 37.039601,685.61158 42.786641,691.66566 48.959931,690.52328 C 52.815141,689.64881 56.813781,683.05119 50.587061,683.11908 C 43.000161,679.54927 50.644841,672.52162 56.309341,674.32258 C 65.807621,675.92256 70.710171,687.88537 66.799601,696.26935 C 62.576161,708.23254 47.763041,712.94292 36.336041,709.39578 C 24.445941,705.86774 16.607811,693.70137 15.997081,681.63175 C 15.266501,673.85 17.570481,666.28645 20.049911,659.02715 C 32.112581,616.07604 45.549711,573.52781 59.436611,531.13736 C 65.284931,512.26219 71.368501,493.41348 75.848311,474.16067 C 78.750321,453.39197 62.979521,430.75281 41.483571,429.10915 C 25.879581,427.2525 9.392661,438.01722 6.174971,453.64641 C 4.25151,463.58617 8.118801,474.85465 17.022671,480.2171 C 24.341551,485.29376 35.196261,484.66673 41.293181,477.94774 C 45.994631,472.92863 46.751881,463.21221 40.105651,459.45312 C 36.493161,455.61778 27.587391,459.7624 28.922081,463.59132 C 34.253101,464.58291 38.935501,472.32811 31.297901,473.89734 C 23.202271,476.74265 15.730241,468.86269 14.810011,461.27157 C 13.361221,450.74357 21.949581,440.87646 32.035751,438.8773 C 42.261481,436.32948 53.861851,440.11794 60.011981,448.82891 C 68.870471,459.61396 68.183431,475.11086 63.485731,487.52735 C 54.812911,515.90358 45.795261,544.18788 36.702151,572.43806 C 27.757191,600.21192 19.291791,628.14348 11.489121,656.25755 C 7.610691,668.36487 4.07822,682.05611 9.553861,694.25907 C 14.998931,709.98918 31.466341,721.3562 48.234141,719.53605 z " style="fill:url(#linearGradient9154);fill-opacity:1;fill-rule:evenodd;stroke:url(#linearGradient9156);stroke-width:6.66666698;stroke-linecap:butt;stroke-linejoin:miter;stroke-miterlimit:4;stroke-opacity:1"/>
      <path id="path5545" d="M 363.78827,740.44297 C 362.5946,756.58962 347.16641,771.4966 330.545,769.10949 C 319.95107,768.05897 310.48051,759.36867 309.37421,748.65036 C 308.41641,740.0848 314.55022,730.33113 323.74531,730.08079 C 329.8638,729.24843 335.91787,734.99547 334.77549,741.16876 C 333.90102,745.02397 327.30341,749.02261 327.3713,742.79589 C 323.80149,735.20899 316.77385,742.85367 318.57481,748.51817 C 320.17478,758.01645 332.13759,762.919 340.52157,759.00843 C 352.48476,754.78499 357.19514,739.97187 353.648,728.54487 C 350.11996,716.65477 337.95359,708.81664 325.88397,708.20591 C 318.10223,707.47533 310.53867,709.77931 303.27937,712.25874 C 260.32826,724.32141 217.78003,737.75854 175.38958,751.64544 C 156.51441,757.49376 137.6657,763.57733 118.41289,768.05714 C 97.64419,770.95915 75.005026,755.18835 73.361366,733.6924 C 71.504716,718.08841 82.269436,701.60149 97.89863,698.3838 C 107.83839,696.46034 119.10687,700.32763 124.46932,709.2315 C 129.54598,716.55038 128.91895,727.40509 122.19996,733.50201 C 117.18085,738.20346 107.46443,738.96071 103.70534,732.31448 C 99.87,728.70199 104.01462,719.79622 107.84354,721.13091 C 108.83513,726.46193 116.58033,731.14433 118.14956,723.50673 C 120.99487,715.4111 113.11491,707.93907 105.52379,707.01884 C 94.99579,705.57005 85.128676,714.15841 83.129516,724.24458 C 80.581696,734.47031 84.370156,746.07068 93.081126,752.22081 C 103.86618,761.0793 119.36308,760.39226 131.77957,755.69456 C 160.1558,747.02174 188.4401,738.00409 216.69028,728.91098 C 244.46414,719.96602 272.3957,711.50062 300.50977,703.69795 C 312.6171,699.81952 326.30833,696.28705 338.51129,701.76269 C 354.2414,707.20776 365.60842,723.67517 363.78827,740.44297 z " style="fill:url(#linearGradient9158);fill-opacity:1;fill-rule:evenodd;stroke:url(#linearGradient9160);stroke-width:6.66666698;stroke-linecap:butt;stroke-linejoin:miter;stroke-miterlimit:4;stroke-opacity:1"/>
      <path id="path5547" d="M 397.07665,757.74778 C 383.90304,757.74778 373.15333,746.99808 373.15333,733.82445 C 373.15333,720.65081 383.90304,709.90112 397.07665,709.90112 C 410.25029,709.90112 421,720.65081 421,733.82445 C 421,746.99808 410.25029,757.74777 397.07665,757.74778 z M 397.07665,751.68644 C 406.97073,751.68644 414.93866,743.71851 414.93866,733.82445 C 414.93866,723.93038 406.97073,715.96245 397.07665,715.96245 C 387.1826,715.96245 379.21466,723.93038 379.21466,733.82445 C 379.21466,743.71851 387.1826,751.68644 397.07665,751.68644 z " style="fill:url(#linearGradient9162);fill-opacity:1;fill-rule:evenodd;stroke:url(#linearGradient9164);stroke-width:6.66666317;stroke-miterlimit:4;stroke-opacity:1"/>
      <path id="path5569" d="M 746.45819,719.53605 C 730.31154,718.34238 715.40456,702.91419 717.79167,686.29278 C 718.84219,675.69885 727.53249,666.22829 738.2508,665.12199 C 746.81636,664.16419 756.57003,670.29799 756.82037,679.49309 C 757.65273,685.61158 751.90569,691.66566 745.7324,690.52328 C 741.87719,689.64881 737.87855,683.05119 744.10527,683.11908 C 751.69217,679.54927 744.04749,672.52162 738.38299,674.32258 C 728.88471,675.92256 723.98216,687.88537 727.89273,696.26935 C 732.11617,708.23254 746.92929,712.94292 758.35629,709.39578 C 770.24639,705.86774 778.08452,693.70137 778.69525,681.63175 C 779.42583,673.85 777.12185,666.28645 774.64242,659.02715 C 762.57975,616.07604 749.14262,573.52781 735.25572,531.13736 C 729.4074,512.26219 723.32383,493.41348 718.84402,474.16067 C 715.94201,453.39197 731.71281,430.75281 753.20876,429.10915 C 768.81275,427.2525 785.29967,438.01722 788.51736,453.64641 C 790.44082,463.58617 786.57353,474.85465 777.66966,480.2171 C 770.35078,485.29376 759.49607,484.66673 753.39915,477.94774 C 748.6977,472.92863 747.94045,463.21221 754.58668,459.45312 C 758.19917,455.61778 767.10494,459.7624 765.77025,463.59132 C 760.43923,464.58291 755.75683,472.32811 763.39443,473.89734 C 771.49006,476.74265 778.96209,468.86269 779.88232,461.27157 C 781.33111,450.74357 772.74275,440.87646 762.65658,438.8773 C 752.43085,436.32948 740.83048,440.11794 734.68035,448.82891 C 725.82186,459.61396 726.5089,475.11086 731.2066,487.52735 C 739.87942,515.90358 748.89707,544.18788 757.99018,572.43806 C 766.93514,600.21192 775.40054,628.14348 783.20321,656.25755 C 787.08164,668.36487 790.61411,682.05611 785.13847,694.25907 C 779.6934,709.98918 763.22599,721.3562 746.45819,719.53605 z " style="fill:url(#linearGradient9166);fill-opacity:1;fill-rule:evenodd;stroke:url(#linearGradient9168);stroke-width:6.66666698;stroke-linecap:butt;stroke-linejoin:miter;stroke-miterlimit:4;stroke-opacity:1"/>
      <path id="path5571" d="M 430.90406,740.44297 C 432.09773,756.58962 447.52592,771.4966 464.14733,769.10949 C 474.74126,768.05897 484.21182,759.36867 485.31812,748.65036 C 486.27592,740.0848 480.14211,730.33113 470.94702,730.08079 C 464.82853,729.24843 458.77446,734.99547 459.91684,741.16876 C 460.79131,745.02397 467.38892,749.02261 467.32103,742.79589 C 470.89084,735.20899 477.91848,742.85367 476.11752,748.51817 C 474.51755,758.01645 462.55474,762.919 454.17076,759.00843 C 442.20757,754.78499 437.49719,739.97187 441.04433,728.54487 C 444.57237,716.65477 456.73874,708.81664 468.80836,708.20591 C 476.5901,707.47533 484.15366,709.77931 491.41296,712.25874 C 534.36407,724.32141 576.9123,737.75854 619.30275,751.64544 C 638.17792,757.49376 657.02663,763.57733 676.27944,768.05714 C 697.04814,770.95915 719.6873,755.18835 721.33096,733.6924 C 723.18761,718.08841 712.42289,701.60149 696.7937,698.3838 C 686.85394,696.46034 675.58546,700.32763 670.22301,709.2315 C 665.14635,716.55038 665.77338,727.40509 672.49237,733.50201 C 677.51148,738.20346 687.2279,738.96071 690.98699,732.31448 C 694.82233,728.70199 690.67771,719.79622 686.84879,721.13091 C 685.8572,726.46193 678.112,731.14433 676.54277,723.50673 C 673.69746,715.4111 681.57742,707.93907 689.16854,707.01884 C 699.69654,705.57005 709.56365,714.15841 711.56281,724.24458 C 714.11063,734.47031 710.32217,746.07068 701.6112,752.22081 C 690.82615,761.0793 675.32925,760.39226 662.91276,755.69456 C 634.53653,747.02174 606.25223,738.00409 578.00205,728.91098 C 550.22819,719.96602 522.29663,711.50062 494.18256,703.69795 C 482.07523,699.81952 468.384,696.28705 456.18104,701.76269 C 440.45093,707.20776 429.08391,723.67517 430.90406,740.44297 z " style="fill:url(#linearGradient9170);fill-opacity:1;fill-rule:evenodd;stroke:url(#linearGradient9172);stroke-width:6.66666698;stroke-linecap:butt;stroke-linejoin:miter;stroke-miterlimit:4;stroke-opacity:1"/>
    </g>
  </g>
  <metadata>
    <rdf:RDF>
      <cc:Work>
        <dc:format>image/svg+xml</dc:format>
        <dc:type rdf:resource="http://purl.org/dc/dcmitype/StillImage"/>
        <cc:license rdf:resource="http://creativecommons.org/licenses/publicdomain/"/>
        <dc:publisher>
          <cc:Agent rdf:about="http://openclipart.org/">
            <dc:title>Open Clip Art Library</dc:title>
          </cc:Agent>
        </dc:publisher>
        <dc:title>Rectangular border</dc:title>
        <dc:date>2007-02-08T05:45:09</dc:date>
        <dc:description>A golden rectangular border</dc:description>
        <dc:source>http://openclipart.org/detail/3093/rectangular-border-by-nicubunu</dc:source>
        <dc:creator>
          <cc:Agent>
            <dc:title>nicubunu</dc:title>
          </cc:Agent>
        </dc:creator>
        <dc:subject>
          <rdf:Bag>
            <rdf:li>border</rdf:li>
            <rdf:li>border</rdf:li>
            <rdf:li>clip art</rdf:li>
            <rdf:li>clipart</rdf:li>
            <rdf:li>image</rdf:li>
            <rdf:li>media</rdf:li>
            <rdf:li>png</rdf:li>
            <rdf:li>public domain</rdf:li>
            <rdf:li>rectangular</rdf:li>
            <rdf:li>rectangular</rdf:li>
            <rdf:li>shape</rdf:li>
            <rdf:li>shape</rdf:li>
            <rdf:li>square</rdf:li>
            <rdf:li>square</rdf:li>
            <rdf:li>svg</rdf:li>
          </rdf:Bag>
        </dc:subject>
      </cc:Work>
      <cc:License rdf:about="http://creativecommons.org/licenses/publicdomain/">
        <cc:permits rdf:resource="http://creativecommons.org/ns#Reproduction"/>
        <cc:permits rdf:resource="http://creativecommons.org/ns#Distribution"/>
        <cc:permits rdf:resource="http://creativecommons.org/ns#DerivativeWorks"/>
      </cc:License>
    </rdf:RDF>
  </metadata>
</svg>